<svg width="229" height="56" viewBox="0 0 229 56" fill="none" xmlns="http://www.w3.org/2000/svg">
<path d="M9.072 12.728H2.448V47H9.072V39.464L11.424 36.392L16.944 47H24.24L15.696 31.352L23.136 21.176H15.84L9.168 30.824H9.072V12.728ZM26.448 12.344V18.008H33.072V12.344H26.448ZM26.448 21.176V47H33.072V21.176H26.448ZM52.5713 24.296H59.4833C59.4833 23.048 59.3873 21.72 59.1953 20.312C59.0353 18.872 58.6033 17.544 57.8993 16.328C57.1953 15.08 56.1233 14.056 54.6833 13.256C53.2753 12.456 51.3393 12.056 48.8753 12.056C46.2833 12.056 44.2193 12.504 42.6833 13.4C41.1473 14.264 39.9633 15.48 39.1313 17.048C38.3313 18.616 37.8033 20.504 37.5473 22.712C37.3233 24.888 37.2113 27.272 37.2113 29.864C37.2113 32.488 37.3233 34.888 37.5473 37.064C37.8033 39.24 38.3313 41.112 39.1313 42.68C39.9633 44.248 41.1473 45.448 42.6833 46.28C44.2193 47.112 46.2833 47.528 48.8753 47.528C51.1473 47.528 52.9873 47.176 54.3953 46.472C55.8353 45.768 56.9393 44.792 57.7073 43.544C58.5073 42.296 59.0513 40.84 59.3393 39.176C59.6273 37.512 59.7712 35.752 59.7712 33.896H52.8593C52.8593 35.752 52.7473 37.256 52.5233 38.408C52.2993 39.528 51.9953 40.408 51.6113 41.048C51.2273 41.656 50.7633 42.072 50.2193 42.296C49.7073 42.488 49.1473 42.584 48.5393 42.584C47.8033 42.584 47.1473 42.44 46.5713 42.152C46.0273 41.832 45.5633 41.24 45.1793 40.376C44.8273 39.48 44.5553 38.232 44.3633 36.632C44.2033 35.032 44.1233 32.936 44.1233 30.344C44.1233 27.912 44.1873 25.864 44.3153 24.2C44.4433 22.504 44.6673 21.144 44.9873 20.12C45.3073 19.064 45.7393 18.312 46.2833 17.864C46.8593 17.384 47.5793 17.144 48.4433 17.144C50.0113 17.144 51.0833 17.72 51.6593 18.872C52.2673 19.992 52.5713 21.8 52.5713 24.296ZM75.5685 34.088V39.176C75.5685 39.88 75.4405 40.488 75.1845 41C74.9285 41.512 74.5925 41.928 74.1765 42.248C73.7925 42.568 73.3605 42.808 72.8805 42.968C72.4005 43.096 71.9365 43.16 71.4885 43.16C70.5925 43.16 69.9525 42.808 69.5685 42.104C69.1845 41.4 68.9925 40.552 68.9925 39.56C68.9925 38.408 69.2805 37.496 69.8565 36.824C70.4325 36.152 71.3925 35.672 72.7365 35.384C73.1525 35.288 73.6165 35.144 74.1285 34.952C74.6405 34.728 75.1205 34.44 75.5685 34.088ZM63.4725 29.096H69.4245V28.376C69.4245 27.352 69.6805 26.536 70.1925 25.928C70.7045 25.32 71.4725 25.016 72.4965 25.016C73.6165 25.016 74.4005 25.304 74.8485 25.88C75.3285 26.424 75.5685 27.192 75.5685 28.184C75.5685 29.048 75.3765 29.704 74.9925 30.152C74.6085 30.6 73.9205 30.952 72.9285 31.208L69.1845 32.216C68.0325 32.536 67.0405 32.904 66.2085 33.32C65.4085 33.736 64.7365 34.264 64.1925 34.904C63.6805 35.512 63.2965 36.264 63.0405 37.16C62.7845 38.024 62.6565 39.064 62.6565 40.28C62.6565 41.144 62.7685 42.024 62.9925 42.92C63.2165 43.784 63.5685 44.568 64.0485 45.272C64.5285 45.976 65.1685 46.536 65.9685 46.952C66.7685 47.336 67.7445 47.528 68.8965 47.528C70.4965 47.528 71.7925 47.336 72.7845 46.952C73.8085 46.536 74.7045 45.656 75.4725 44.312H75.5685C75.6645 44.76 75.7605 45.224 75.8565 45.704C75.9845 46.152 76.1605 46.584 76.3845 47H82.7205C82.4005 46.232 82.1765 45.512 82.0485 44.84C81.9525 44.168 81.9045 43.224 81.9045 42.008V28.424C81.9045 27.272 81.7765 26.216 81.5205 25.256C81.2965 24.264 80.8485 23.416 80.1765 22.712C79.5045 22.008 78.5605 21.464 77.3445 21.08C76.1285 20.696 74.5285 20.504 72.5445 20.504C71.2965 20.504 70.1125 20.648 68.9925 20.936C67.9045 21.192 66.9445 21.64 66.1125 22.28C65.3125 22.888 64.6725 23.704 64.1925 24.728C63.7125 25.72 63.4725 26.968 63.4725 28.472V29.096ZM86.6299 21.176V55.304H93.2539V44.6H93.3499C94.0539 45.624 94.8379 46.376 95.7019 46.856C96.5979 47.304 97.6699 47.528 98.9179 47.528C101.638 47.528 103.638 46.488 104.918 44.408C106.198 42.328 106.838 38.888 106.838 34.088C106.838 29.288 106.198 25.832 104.918 23.72C103.638 21.576 101.638 20.504 98.9179 20.504C97.5739 20.504 96.4379 20.776 95.5099 21.32C94.6139 21.832 93.7979 22.696 93.0619 23.912H92.9659V21.176H86.6299ZM93.2539 34.088C93.2539 31.272 93.4619 29.16 93.8779 27.752C94.3259 26.312 95.2859 25.592 96.7579 25.592C98.1979 25.592 99.1259 26.312 99.5419 27.752C99.9899 29.16 100.214 31.272 100.214 34.088C100.214 36.904 99.9899 39.032 99.5419 40.472C99.1259 41.88 98.1979 42.584 96.7579 42.584C95.2859 42.584 94.3259 41.88 93.8779 40.472C93.4619 39.032 93.2539 36.904 93.2539 34.088ZM112.07 13.784V21.176H108.71V25.688H112.07V40.472C112.07 41.784 112.15 42.872 112.31 43.736C112.47 44.6 112.758 45.304 113.174 45.848C113.622 46.36 114.246 46.712 115.046 46.904C115.878 47.064 116.934 47.144 118.214 47.144C118.982 47.144 119.702 47.112 120.374 47.048C121.078 47.016 121.798 47 122.534 47V42.392C122.31 42.424 122.07 42.456 121.814 42.488C121.558 42.488 121.302 42.488 121.046 42.488C120.086 42.488 119.446 42.28 119.126 41.864C118.838 41.416 118.694 40.68 118.694 39.656V25.688H122.534V21.176H118.694V13.784H112.07ZM137.265 30.488H143.601C143.601 27.416 142.817 24.984 141.249 23.192C139.713 21.4 137.409 20.504 134.337 20.504C132.801 20.504 131.393 20.712 130.113 21.128C128.833 21.544 127.729 22.28 126.801 23.336C125.873 24.36 125.153 25.752 124.641 27.512C124.129 29.24 123.873 31.432 123.873 34.088C123.873 36.68 124.081 38.856 124.497 40.616C124.913 42.344 125.521 43.736 126.321 44.792C127.153 45.816 128.177 46.536 129.393 46.952C130.641 47.336 132.097 47.528 133.761 47.528C137.281 47.528 139.793 46.648 141.297 44.888C142.833 43.096 143.601 40.504 143.601 37.112H137.265C137.265 39.224 137.009 40.76 136.497 41.72C135.985 42.68 135.169 43.16 134.049 43.16C133.313 43.16 132.705 43 132.225 42.68C131.777 42.328 131.425 41.784 131.169 41.048C130.913 40.312 130.737 39.384 130.641 38.264C130.545 37.112 130.497 35.736 130.497 34.136C130.497 32.632 130.545 31.336 130.641 30.248C130.737 29.128 130.913 28.216 131.169 27.512C131.425 26.776 131.809 26.232 132.321 25.88C132.833 25.496 133.489 25.304 134.289 25.304C134.929 25.304 135.441 25.464 135.825 25.784C136.209 26.072 136.497 26.472 136.689 26.984C136.913 27.464 137.057 28.008 137.121 28.616C137.217 29.224 137.265 29.848 137.265 30.488ZM147.052 12.728V47H153.676V29.864C153.676 27.016 154.844 25.592 157.18 25.592C158.172 25.592 158.892 25.864 159.34 26.408C159.788 26.92 160.012 27.848 160.012 29.192V47H166.636V27.848C166.636 25.256 166.06 23.384 164.908 22.232C163.788 21.08 162.172 20.504 160.06 20.504C157.148 20.504 155.052 21.608 153.772 23.816H153.676V12.728H147.052ZM183.1 34.088V39.176C183.1 39.88 182.972 40.488 182.716 41C182.46 41.512 182.124 41.928 181.708 42.248C181.324 42.568 180.892 42.808 180.412 42.968C179.932 43.096 179.468 43.16 179.02 43.16C178.124 43.16 177.484 42.808 177.1 42.104C176.716 41.4 176.524 40.552 176.524 39.56C176.524 38.408 176.812 37.496 177.388 36.824C177.964 36.152 178.924 35.672 180.268 35.384C180.684 35.288 181.148 35.144 181.66 34.952C182.172 34.728 182.652 34.44 183.1 34.088ZM171.004 29.096H176.956V28.376C176.956 27.352 177.212 26.536 177.724 25.928C178.236 25.32 179.004 25.016 180.028 25.016C181.148 25.016 181.932 25.304 182.38 25.88C182.86 26.424 183.1 27.192 183.1 28.184C183.1 29.048 182.908 29.704 182.524 30.152C182.14 30.6 181.452 30.952 180.46 31.208L176.716 32.216C175.564 32.536 174.572 32.904 173.74 33.32C172.94 33.736 172.268 34.264 171.724 34.904C171.212 35.512 170.828 36.264 170.572 37.16C170.316 38.024 170.188 39.064 170.188 40.28C170.188 41.144 170.3 42.024 170.524 42.92C170.748 43.784 171.1 44.568 171.58 45.272C172.06 45.976 172.7 46.536 173.5 46.952C174.3 47.336 175.276 47.528 176.428 47.528C178.028 47.528 179.324 47.336 180.316 46.952C181.34 46.536 182.236 45.656 183.004 44.312H183.1C183.196 44.76 183.292 45.224 183.388 45.704C183.516 46.152 183.692 46.584 183.916 47H190.252C189.932 46.232 189.708 45.512 189.58 44.84C189.484 44.168 189.436 43.224 189.436 42.008V28.424C189.436 27.272 189.308 26.216 189.052 25.256C188.828 24.264 188.38 23.416 187.708 22.712C187.036 22.008 186.092 21.464 184.876 21.08C183.66 20.696 182.06 20.504 180.076 20.504C178.828 20.504 177.644 20.648 176.524 20.936C175.436 21.192 174.476 21.64 173.644 22.28C172.844 22.888 172.204 23.704 171.724 24.728C171.244 25.72 171.004 26.968 171.004 28.472V29.096Z" fill="black"/>
<g clip-path="url(#clip0_165_8)">
<path d="M65.2753 8.08539C65.277 8.08841 65.2787 8.09136 65.2805 8.09438L71.2416 18.0987C71.2422 18.0997 71.2429 18.1007 71.2435 18.1018C71.528 18.5733 71.9782 18.9053 72.511 19.0365C73.0439 19.1677 73.5957 19.0824 74.0648 18.7963C74.3461 18.6247 74.585 18.3846 74.7556 18.1018C74.7562 18.1007 74.7569 18.0997 74.7575 18.0987L80.7186 8.09444C80.7204 8.09142 80.7222 8.08844 80.7239 8.08542C80.9982 7.60782 81.0711 7.05139 80.9292 6.51867C80.7872 5.98593 80.4474 5.54068 79.9723 5.26489C79.6673 5.08786 79.3199 4.99223 78.9678 4.9883C78.9654 4.98827 78.9631 4.98827 78.9607 4.98827L67.0384 4.98827C67.036 4.98827 67.0336 4.98827 67.0313 4.98824C65.8989 5.00078 64.9877 5.93714 65.0001 7.07561C65.004 7.42963 65.0991 7.77884 65.2753 8.08539ZM67.0425 6.28768L78.9566 6.28768C79.0861 6.28962 79.2137 6.325 79.326 6.39019C79.5021 6.49238 79.628 6.65744 79.6806 6.85488C79.7329 7.05091 79.7066 7.25559 79.6067 7.4318L73.6496 17.4292C73.5865 17.5335 73.4982 17.622 73.3944 17.6853C73.2205 17.7913 73.0159 17.823 72.8185 17.7743C72.6214 17.7258 72.4549 17.6033 72.3494 17.4292L66.3925 7.43186C66.3286 7.31914 66.2941 7.19112 66.2927 7.06138C66.288 6.64038 66.6242 6.29396 67.0425 6.28768Z" fill="black"/>
</g>
<defs>
<clipPath id="clip0_165_8">
<rect width="16" height="16.0847" fill="white" transform="translate(81 20.0847) rotate(180)"/>
</clipPath>
</defs>
</svg>
