<svg width="72" height="64" viewBox="0 0 72 64" xmlns="http://www.w3.org/2000/svg">
<path d="M1.23864 14.2872C1.24637 14.3007 1.25425 14.3139 1.26226 14.3274L28.0874 59.1099C28.0901 59.1146 28.093 59.1191 28.0957 59.1237C29.3759 61.2345 31.4018 62.7205 33.7996 63.3076C36.1977 63.8951 38.6805 63.5131 40.7915 62.2327C42.0575 61.4646 43.1326 60.3895 43.9004 59.1236C43.9031 59.1191 43.9059 59.1146 43.9086 59.1099L70.7338 14.3277C70.7418 14.3142 70.7497 14.3008 70.7574 14.2873C71.992 12.1494 72.3201 9.65863 71.6812 7.27405C71.0424 4.88932 69.5133 2.89624 67.3753 1.66169C66.0028 0.869267 64.4397 0.441204 62.8551 0.423626C62.8445 0.423485 62.8338 0.423485 62.8231 0.423485L9.17271 0.423485C9.16203 0.423485 9.15134 0.423485 9.1408 0.423344C4.04496 0.479454 -0.055399 4.67093 0.000570297 9.76705C0.0181484 11.3518 0.446074 12.915 1.23864 14.2872ZM9.19128 6.24003L62.8047 6.24003C63.3876 6.24875 63.9619 6.40709 64.4669 6.69889C65.2593 7.15634 65.826 7.89519 66.0628 8.77902C66.2979 9.65652 66.1798 10.5727 65.7302 11.3615L38.9234 56.1129C38.6392 56.5797 38.2419 56.9761 37.7746 57.2596C36.9922 57.7341 36.0717 57.8757 35.183 57.658C34.2964 57.4409 33.5472 56.8924 33.0724 56.1131L6.26613 11.3617C5.97855 10.8572 5.8233 10.2841 5.81697 9.70335C5.79602 7.81883 7.30872 6.26816 9.19128 6.24003Z" fill="black"/>
</svg>
